<svg id="Capa_1" enable-background="new 0 0 512.015 512.015" height="512" viewBox="0 0 512.015 512.015" width="512" xmlns="http://www.w3.org/2000/svg"><g><circle cx="226.007" cy="202.513" r="7.5"/><path d="m421.007 165.013h-15c-4.143 0-7.5 3.358-7.5 7.5s3.357 7.5 7.5 7.5h15c4.136 0 7.5 3.364 7.5 7.5s-3.364 7.5-7.5 7.5h-38.255c-3.484-17.096-18.635-30-36.745-30h-53.307c9.745-9.537 15.808-22.821 15.808-37.5v-87.092c.002-3.066-.597-6.067-1.776-8.917-2.912-7.031-8.907-12.014-15.983-13.73-1.717-7.075-6.7-13.071-13.73-15.983-7.029-2.912-14.793-2.196-21.01 1.593-6.218-3.789-13.982-4.505-21.01-1.593-7.03 2.912-12.014 8.907-13.73 15.982-7.075 1.717-13.071 6.7-15.983 13.731-1.18 2.851-1.778 5.851-1.776 8.915v87.095c0 14.679 6.063 27.963 15.808 37.5h-53.308c-17.955 0-32.995 12.687-36.647 29.564-25.819-3.279-45.853-25.369-45.853-52.064 0-4.142-3.357-7.5-7.5-7.5s-7.5 3.358-7.5 7.5c0 37.22 30.28 67.5 67.5 67.5h39.377c3.913 17.952 13.887 34.347 28.123 46.125v203.375c0 4.142 3.357 7.5 7.5 7.5 2.568 0 5.076-.261 7.5-.755v22.849l-24.872 8.291c-3.93 1.31-6.053 5.557-4.743 9.487 1.048 3.143 3.974 5.13 7.114 5.13.786 0 1.586-.124 2.373-.387l30-10c3.063-1.021 5.128-3.887 5.128-7.115v-35.02c2.839-2.136 5.366-4.665 7.5-7.505 5.502 7.326 13.623 12.572 22.958 14.353 3.359 25.733 25.408 45.672 52.042 45.672h45c4.143 0 7.5-3.358 7.5-7.5 0-18.109-12.904-33.262-30-36.747v-257.754h82.5c12.406 0 22.5-10.093 22.5-22.5s-10.096-22.5-22.503-22.5zm-202.5-124.598c-.001-1.085.213-2.152.635-3.171 1.393-3.361 4.763-5.414 8.382-5.094 2.216.192 4.386-.603 5.951-2.169s2.359-3.744 2.168-5.951c-.313-3.621 1.733-6.989 5.095-8.381 3.366-1.393 7.19-.457 9.528 2.324 1.426 1.695 3.527 2.674 5.741 2.674 2.215 0 4.316-.979 5.741-2.674 2.339-2.782 6.169-3.716 9.528-2.324 3.361 1.392 5.408 4.76 5.095 8.381-.191 2.207.603 4.384 2.168 5.951 1.566 1.565 3.738 2.356 5.951 2.169 3.607-.318 6.988 1.732 8.381 5.094.423 1.02.637 2.086.636 3.175v20.403c-9.537-9.745-22.821-15.808-37.5-15.808s-27.963 6.063-37.5 15.808zm0 57.098c0-20.678 16.822-37.5 37.5-37.5s37.5 16.822 37.5 37.5v2.5h-18.13c-4.389-6.2-11.545-10-19.37-10s-14.982 3.8-19.371 10h-18.129zm15 332c0 9.778-6.27 18.12-15 21.215v-150.715h15zm30 21.21c-8.729-3.096-15-11.432-15-21.21v-129.5h15zm0-165.71h-45v-25.009h45zm0-40.009h-49.894c-13.348-10.809-22.24-26.515-24.502-43.482-.497-3.726-3.676-6.509-7.435-6.509h-36.879c3.096-8.729 11.433-15 21.21-15h97.5zm-7.5-79.991c-20.678 0-37.5-16.822-37.5-37.5v-12.5h22.499c3.026 0 5.757-1.819 6.922-4.613 1.365-3.272 4.536-5.387 8.079-5.387 3.542 0 6.713 2.115 8.078 5.387 1.165 2.793 3.896 4.613 6.922 4.613h22.5v12.5c0 20.678-16.822 37.5-37.5 37.5zm96.215 332h-36.215c-20.678 0-37.5-16.822-37.5-37.5v-279.5h45v294.5c0 4.142 3.357 7.5 7.5 7.5 9.779 0 18.12 6.27 21.215 15zm-13.715-302v-15h7.5c9.777 0 18.114 6.271 21.21 15z"/><path d="m431.614 75.013 9.697-9.697c2.929-2.929 2.929-7.678 0-10.606-2.93-2.929-7.678-2.929-10.607 0l-2.196 2.196v-49.393c0-4.142-3.357-7.5-7.5-7.5h-30c-4.143 0-7.5 3.358-7.5 7.5v135c0 4.142 3.357 7.5 7.5 7.5h30c4.143 0 7.5-3.358 7.5-7.5v-49.393l2.196 2.196c2.93 2.929 7.678 2.929 10.607 0s2.929-7.678 0-10.606zm-18.107 60h-15v-52.5h15zm0-67.5h-15v-52.5h15z"/></g></svg>